<svg width="35" height="41" viewBox="0 0 35 41" fill="none" xmlns="http://www.w3.org/2000/svg">
<path d="M6.5 21V8.2C6.5 6.44 7.7375 5 9.25 5H25.75C27.2625 5 28.5 6.44 28.5 8.2V21" fill="#B2B4F9"/>
<path d="M6.5 21V8.2C6.5 6.44 7.7375 5 9.25 5H25.75C27.2625 5 28.5 6.44 28.5 8.2V21" stroke="#1A1C5F" stroke-width="1.4" stroke-miterlimit="10" stroke-linecap="round" stroke-linejoin="round"/>
<path d="M28.5 14V26.8C28.5 28.56 27.2625 30 25.75 30L9.25 30C7.7375 30 6.5 28.56 6.5 26.8V14" fill="#B2B4F9"/>
<path d="M28.5 14V26.8C28.5 28.56 27.2625 30 25.75 30L9.25 30C7.7375 30 6.5 28.56 6.5 26.8V14" stroke="#1A1C5F" stroke-width="1.4" stroke-miterlimit="10" stroke-linecap="round" stroke-linejoin="round"/>
<path d="M5.99988 16C7.27494 14.1652 8 13.5 11 13C13 14.5 14.5 15.5 17.5 16.5C20.4459 15.7472 22 15 23.5 13C25.5 13 27.255 13.7635 29.4999 16L33.9999 20.5C34.1797 22.5995 33.7761 23.211 32 25C31.0599 25.1046 30.5211 25.0639 29.4999 24.5C26.7888 22.0481 25.3531 20.7861 24.9999 21.5L24.4999 39.5H9.99988V21C7.59242 23.2025 6.25058 24.35 3.99988 25L1.49988 24C0.751884 22.2576 0.707182 21.4693 1.49988 20.5C3.18651 17.968 4.2011 17.3026 5.99988 16Z" fill="white"/>
<path d="M17.4498 16.3198C21.5422 16.3198 24.8597 13.0023 24.8597 8.9099C24.8597 4.81752 21.5422 1.5 17.4498 1.5C13.3574 1.5 10.0399 4.81752 10.0399 8.9099C10.0399 13.0023 13.3574 16.3198 17.4498 16.3198Z" fill="white" stroke="#1A1C5F" stroke-width="1.4" stroke-miterlimit="10" stroke-linecap="round" stroke-linejoin="round"/>
<path d="M13.4999 9.02791C13.4999 10.8788 15.2999 13 17.4999 13C19.6999 13 21.4999 10.8788 21.4999 9.02791C20.357 6.32403 14.6427 6.32405 13.4999 9.02791Z" fill="#1A1C5F" stroke="#1A1C5F" stroke-width="2.96396" stroke-miterlimit="10" stroke-linecap="round" stroke-linejoin="round"/>
<path d="M12.9999 39.5314C15.7709 39.5663 17.4499 39.5314 17.4499 39.5314V34H10.04V37C9.99998 39.4937 10.2277 39.4966 12.9791 39.5312L12.9999 39.5314Z" fill="#B2B4F9"/>
<path d="M17.4499 30.6395V34M11.5 13.5C8.68424 13.5 5.89041 15.5234 3.96384 17.4499L1.88907 19.5247C0.703482 20.7103 0.703482 22.7851 1.88907 23.9706C3.07465 25.1562 5.14942 25.1562 6.335 23.9706L10.04 20.2657V34M10.04 34V37C9.99988 39.5 10.2289 39.4966 12.9999 39.5314C15.7709 39.5663 17.4499 39.5314 17.4499 39.5314V34M10.04 34H17.4499" stroke="#1A1C5F" stroke-width="1.4" stroke-miterlimit="10" stroke-linecap="round" stroke-linejoin="round"/>
<path d="M21.9999 39.5314H17.4498V34H24.8597V37C24.8597 39.1713 24.4999 39.5 21.9999 39.5314Z" fill="#B2B4F9"/>
<path d="M17.4498 30.5V34M23.9999 13.3378C26.8156 13.3378 29.0093 15.5234 30.9358 17.45L33.0106 19.5247C34.1962 20.7103 34.1962 22.7851 33.0106 23.9707C31.825 25.1562 29.7503 25.1562 28.5647 23.9707L24.8597 20.2657V34M24.8597 34V37C24.8597 39.1713 24.4999 39.5 21.9999 39.5314H17.4498V34M24.8597 34H17.4498" stroke="#1A1C5F" stroke-width="1.4" stroke-miterlimit="10" stroke-linecap="round" stroke-linejoin="round"/>
<rect x="13.7999" y="20.8" width="7.4" height="5.4" rx="0.8" fill="#B2B4F9" stroke="#1A1C5F" stroke-width="1.4"/>
</svg>
