<svg width="35" height="40" viewBox="0 0 35 40" fill="none" xmlns="http://www.w3.org/2000/svg">
<path d="M6 19V7C6 5.35 7.29375 4 8.875 4H26.125C27.7063 4 29 5.35 29 7V19" fill="#B2B4F9"/>
<path d="M6 19V7C6 5.35 7.29375 4 8.875 4H26.125C27.7063 4 29 5.35 29 7V19" stroke="#1A1C5F" stroke-width="2.4" stroke-miterlimit="10" stroke-linecap="round" stroke-linejoin="round"/>
<path d="M29 13L29 25C29 26.65 27.7063 28 26.125 28L8.875 28C7.29375 28 6 26.65 6 25L6 13" fill="#B2B4F9"/>
<path d="M29 13L29 25C29 26.65 27.7063 28 26.125 28L8.875 28C7.29375 28 6 26.65 6 25L6 13" stroke="#1A1C5F" stroke-width="2.4" stroke-miterlimit="10" stroke-linecap="round" stroke-linejoin="round"/>
<path d="M6 15L11 13L18 16.5L23.5 13L29.5 15L34 19.5L32 24.5L29.5 23.5L25 20.5L24.5 38.5H10V20L4 24L1.5 23V19.5L6 15Z" fill="white"/>
<path d="M17.4499 16.3017C21.5423 16.3017 24.8598 12.9842 24.8598 8.89183C24.8598 4.79946 21.5423 1.48193 17.4499 1.48193C13.3576 1.48193 10.04 4.79946 10.04 8.89183C10.04 12.9842 13.3576 16.3017 17.4499 16.3017Z" fill="white" stroke="#1A1C5F" stroke-width="2.4" stroke-miterlimit="10" stroke-linecap="round" stroke-linejoin="round"/>
<path d="M14 9.22758C14 10.7524 15.575 12.5 17.5 12.5C19.425 12.5 21 10.7524 21 9.22758C20 6.99999 15 7 14 9.22758Z" fill="#1A1C5F" stroke="#1A1C5F" stroke-width="2.96396" stroke-miterlimit="10" stroke-linecap="round" stroke-linejoin="round"/>
<path d="M13 38.5314C15.771 38.5663 17.45 38.5314 17.45 38.5314V33H10.0401V36C10.0001 38.4937 10.2279 38.4966 12.9792 38.5312L13 38.5314Z" fill="#B2B4F9"/>
<path d="M17.45 29.6396V33M11.5221 13.3378C8.70629 13.3378 5.89053 14.5234 3.96396 16.45L1.88919 18.5247C0.703604 19.7103 0.703604 21.7851 1.88919 22.9707C3.07477 24.1562 5.14954 24.1562 6.33513 22.9707L10.0401 19.2657V33M10.0401 33V36C10 38.5 10.229 38.4966 13 38.5314C15.771 38.5663 17.45 38.5314 17.45 38.5314V33M10.0401 33H17.45" stroke="#1A1C5F" stroke-width="2" stroke-miterlimit="10" stroke-linecap="round" stroke-linejoin="round"/>
<path d="M22 38.5314H17.45V33H24.8598V36C24.8598 38.1713 24.5 38.5 22 38.5314Z" fill="#B2B4F9"/>
<path d="M17.45 29.5V33M23.3779 13.3378C26.1936 13.3378 29.0094 14.5234 30.936 16.45L33.0107 18.5247C34.1963 19.7103 34.1963 21.7851 33.0107 22.9707C31.8252 24.1562 29.7504 24.1562 28.5648 22.9707L24.8598 19.2657V33M24.8598 33V36C24.8598 38.1713 24.5 38.5 22 38.5314H17.45V33M24.8598 33H17.45" stroke="#1A1C5F" stroke-width="2" stroke-miterlimit="10" stroke-linecap="round" stroke-linejoin="round"/>
<rect x="14" y="20" width="7" height="5.5" rx="1.1" fill="#B2B4F9" stroke="#1A1C5F" stroke-width="2"/>
</svg>
