<svg width="26" height="35" viewBox="0 0 26 35" fill="none" xmlns="http://www.w3.org/2000/svg">
<path fill-rule="evenodd" clip-rule="evenodd" d="M13 34C13 34 25 24.4274 25 13C25 6.37258 19.6274 1 13 1C6.37258 1 1 6.37258 1 13C1 24.4274 13 34 13 34ZM15 12L13 8L11 12L7 14L11 16L13 20L15 16L19 14L15 12Z" fill="#F9CCFF"/>
<path d="M13 34L12.3764 34.7817C12.7412 35.0728 13.2588 35.0728 13.6236 34.7817L13 34ZM13 8L13.8944 7.55279C13.725 7.214 13.3788 7 13 7C12.6212 7 12.275 7.214 12.1056 7.55279L13 8ZM15 12L14.1056 12.4472C14.2023 12.6407 14.3593 12.7977 14.5528 12.8944L15 12ZM11 12L11.4472 12.8944C11.6407 12.7977 11.7977 12.6407 11.8944 12.4472L11 12ZM7 14L6.55279 13.1056C6.214 13.275 6 13.6212 6 14C6 14.3788 6.214 14.725 6.55279 14.8944L7 14ZM11 16L11.8944 15.5528C11.7977 15.3593 11.6407 15.2023 11.4472 15.1056L11 16ZM13 20L12.1056 20.4472C12.275 20.786 12.6212 21 13 21C13.3788 21 13.725 20.786 13.8944 20.4472L13 20ZM15 16L14.5528 15.1056C14.3593 15.2023 14.2023 15.3593 14.1056 15.5528L15 16ZM19 14L19.4472 14.8944C19.786 14.725 20 14.3788 20 14C20 13.6212 19.786 13.275 19.4472 13.1056L19 14ZM24 13C24 18.3801 21.163 23.4104 18.2134 27.1678C16.7495 29.0326 15.2836 30.5512 14.1838 31.6031C13.6345 32.1284 13.1781 32.5359 12.8611 32.8103C12.7026 32.9475 12.5791 33.0514 12.4963 33.12C12.455 33.1543 12.4238 33.1798 12.4036 33.1963C12.3934 33.2045 12.3861 33.2105 12.3815 33.2142C12.3792 33.216 12.3776 33.2173 12.3768 33.2179C12.3764 33.2183 12.3761 33.2185 12.3761 33.2185C12.376 33.2186 12.3761 33.2185 12.3761 33.2185C12.3762 33.2184 12.3764 33.2183 13 34C13.6236 34.7817 13.6239 34.7815 13.6242 34.7813C13.6244 34.7811 13.6247 34.7809 13.625 34.7806C13.6257 34.7801 13.6266 34.7794 13.6276 34.7786C13.6296 34.7769 13.6324 34.7747 13.6359 34.7719C13.6429 34.7663 13.6527 34.7583 13.6653 34.7481C13.6905 34.7276 13.7267 34.698 13.7732 34.6594C13.8662 34.5822 14.0005 34.4693 14.1702 34.3224C14.5094 34.0287 14.9905 33.599 15.5662 33.0484C16.7164 31.9483 18.2505 30.3595 19.7866 28.4028C22.837 24.517 26 19.0473 26 13H24ZM13 2C19.0751 2 24 6.92487 24 13H26C26 5.8203 20.1797 0 13 0V2ZM2 13C2 6.92487 6.92487 2 13 2V0C5.8203 0 0 5.8203 0 13H2ZM13 34C13.6236 33.2183 13.6238 33.2184 13.6239 33.2185C13.6239 33.2185 13.624 33.2186 13.6239 33.2185C13.6239 33.2185 13.6236 33.2183 13.6232 33.2179C13.6224 33.2173 13.6208 33.216 13.6185 33.2142C13.6139 33.2105 13.6066 33.2045 13.5964 33.1963C13.5762 33.1798 13.545 33.1543 13.5037 33.12C13.4209 33.0514 13.2974 32.9475 13.1389 32.8103C12.8219 32.5359 12.3655 32.1284 11.8162 31.6031C10.7164 30.5512 9.25051 29.0326 7.78658 27.1678C4.83698 23.4104 2 18.3801 2 13H0C0 19.0473 3.16302 24.517 6.21342 28.4028C7.74949 30.3595 9.28357 31.9483 10.4338 33.0484C11.0095 33.599 11.4906 34.0287 11.8298 34.3224C11.9995 34.4693 12.1338 34.5822 12.2268 34.6594C12.2733 34.698 12.3095 34.7276 12.3347 34.7481C12.3473 34.7583 12.3571 34.7663 12.3641 34.7719C12.3676 34.7747 12.3704 34.7769 12.3724 34.7786C12.3734 34.7794 12.3743 34.7801 12.375 34.7806C12.3753 34.7809 12.3756 34.7811 12.3758 34.7813C12.3761 34.7815 12.3764 34.7817 13 34ZM12.1056 8.44721L14.1056 12.4472L15.8944 11.5528L13.8944 7.55279L12.1056 8.44721ZM11.8944 12.4472L13.8944 8.44721L12.1056 7.55279L10.1056 11.5528L11.8944 12.4472ZM7.44721 14.8944L11.4472 12.8944L10.5528 11.1056L6.55279 13.1056L7.44721 14.8944ZM11.4472 15.1056L7.44721 13.1056L6.55279 14.8944L10.5528 16.8944L11.4472 15.1056ZM13.8944 19.5528L11.8944 15.5528L10.1056 16.4472L12.1056 20.4472L13.8944 19.5528ZM14.1056 15.5528L12.1056 19.5528L13.8944 20.4472L15.8944 16.4472L14.1056 15.5528ZM18.5528 13.1056L14.5528 15.1056L15.4472 16.8944L19.4472 14.8944L18.5528 13.1056ZM14.5528 12.8944L18.5528 14.8944L19.4472 13.1056L15.4472 11.1056L14.5528 12.8944Z" fill="#1A1C5F"/>
</svg>
