<svg width="40" height="40" viewBox="0 0 40 40" fill="none" xmlns="http://www.w3.org/2000/svg">
<path fill-rule="evenodd" clip-rule="evenodd" d="M19.2329 37.2517C19.2833 37.2809 19.3228 37.3034 19.3508 37.3192L19.3974 37.3451C19.7688 37.5491 20.2296 37.5475 20.6014 37.3458L20.6492 37.3192C20.6772 37.3034 20.7167 37.2809 20.7671 37.2517C20.8678 37.1934 21.0116 37.1083 21.1925 36.997C21.5541 36.7743 22.0646 36.446 22.6744 36.0152C23.8918 35.1551 25.5162 33.8791 27.1442 32.2122C30.3845 28.8947 33.75 23.9103 33.75 17.5C33.75 9.90608 27.5939 3.75 20 3.75C12.4061 3.75 6.25 9.90608 6.25 17.5C6.25 23.9103 9.61554 28.8947 12.8558 32.2122C14.4838 33.8791 16.1082 35.1551 17.3256 36.0152C17.9354 36.446 18.4459 36.7743 18.8075 36.997C18.9884 37.1083 19.1322 37.1934 19.2329 37.2517ZM14.0867 15.8213L17.8084 15.2817L19.4727 11.91C19.5208 11.8123 19.5953 11.7301 19.6878 11.6725C19.7803 11.615 19.887 11.5845 19.9959 11.5845C20.1048 11.5845 20.2115 11.615 20.304 11.6725C20.3965 11.7301 20.471 11.8123 20.5192 11.91L22.1828 15.2817L25.9045 15.8218C26.0065 15.8366 26.1028 15.8782 26.1836 15.9423C26.2644 16.0064 26.3267 16.0908 26.3642 16.1868C26.4017 16.2829 26.4131 16.3872 26.3972 16.489C26.3813 16.5909 26.3387 16.6868 26.2737 16.7668L26.2282 16.8164L23.5309 19.4414L24.1673 23.1485C24.1849 23.2505 24.175 23.3553 24.1386 23.4522C24.1023 23.5491 24.0409 23.6346 23.9606 23.6999C23.8803 23.7652 23.7841 23.808 23.6818 23.8239C23.5796 23.8397 23.4749 23.8281 23.3787 23.7902L23.3203 23.7633L19.9994 22.0133L16.6709 23.7633C16.5794 23.8115 16.4768 23.8345 16.3735 23.8299C16.2702 23.8253 16.17 23.7934 16.0831 23.7374C15.9962 23.6814 15.9258 23.6032 15.879 23.511C15.8322 23.4188 15.8108 23.3159 15.8169 23.2127L15.8245 23.1485L16.4603 19.4414L13.7642 16.817C13.6901 16.7451 13.6364 16.6548 13.6087 16.5554C13.5809 16.4559 13.58 16.3509 13.6061 16.251C13.6322 16.1511 13.6843 16.0599 13.7572 15.9868C13.8301 15.9137 13.921 15.8612 14.0208 15.8347L14.0867 15.8213Z" fill="#2E1D6D"/>
</svg>
